<svg viewBox="0 0 47.75390625 84.9111328125" xmlns="http://www.w3.org/2000/svg">
    <g transform="matrix(1 0 0 1 -12.451191406250018 77.685546875)">
        <path d="M 16.8945 7.17773 C 18.1641 7.17773 19.2383 6.68945 20.0684 5.85938 L 58.7891 -31.9824 C 59.7168 -32.9102 60.2051 -34.0332 60.2051 -35.2539 C 60.2051 -36.5234 59.7168 -37.6953 58.7891 -38.5254 L 20.1172 -76.3184 C 19.2383 -77.1973 18.1641 -77.6855 16.8945 -77.6855 C 14.3555 -77.6855 12.4512 -75.7324 12.4512 -73.1934 C 12.4512 -72.0215 12.9395 -70.8496 13.7207 -70.0195 L 49.2676 -35.2539 L 13.7207 -0.488281 C 12.9395 0.341797 12.4512 1.46484 12.4512 2.68555 C 12.4512 5.22461 14.3555 7.17773 16.8945 7.17773 Z" />
    </g>
</svg>