<svg viewBox="0 0 420 420" version="1.1" width="420" height="420" xmlns="http://www.w3.org/2000/svg">
    <path d="m 16.8945,7.17773 c 1.2696,0 2.3438,-0.48828 3.1739,-1.31835 L 58.7891,-31.9824 c 0.9277,-0.9278 1.416,-2.0508 1.416,-3.2715 0,-1.2695 -0.4883,-2.4414 -1.416,-3.2715 l -38.6719,-37.793 c -0.8789,-0.8789 -1.9531,-1.3671 -3.2227,-1.3671 -2.539,0 -4.4433,1.9531 -4.4433,4.4921 0,1.1719 0.4883,2.3438 1.2695,3.1739 l 35.5469,34.7656 -35.5469,34.765619 c -0.7812,0.830078 -1.2695,1.953121 -1.2695,3.173831 0,2.53906 1.9043,4.49218 4.4433,4.49218 z" transform="matrix(5.0257675,0,0,4.9491399,27.423164,384.47641)"/>
</svg>
