<svg viewBox="0 0 99.6097412109375 99.6572265625" version="1.1" xmlns="http://www.w3.org/2000/svg">
    <g transform="matrix(1 0 0 1 -8.740283203125045 85.05859375)">
        <path d="M 58.5449 14.5508 C 85.791 14.5508 108.35 -8.00781 108.35 -35.2539 C 108.35 -62.4512 85.7422 -85.0586 58.4961 -85.0586 C 31.2988 -85.0586 8.74023 -62.4512 8.74023 -35.2539 C 8.74023 -8.00781 31.3477 14.5508 58.5449 14.5508 Z M 58.5449 -18.6035 C 43.8477 -18.6035 32.5684 -13.3789 27.5879 -7.51953 C 21.0449 -14.8438 17.0898 -24.5605 17.0898 -35.2539 C 17.0898 -58.252 35.4492 -76.7578 58.4961 -76.7578 C 81.543 -76.7578 100 -58.252 100.049 -35.2539 C 100.098 -24.5117 96.0938 -14.7949 89.502 -7.4707 C 84.5703 -13.3301 73.2422 -18.6035 58.5449 -18.6035 Z M 58.5449 -26.9043 C 67.9199 -26.8066 75.293 -34.8145 75.293 -45.3125 C 75.293 -55.1758 67.9199 -63.3789 58.5449 -63.3789 C 49.1699 -63.3789 41.748 -55.1758 41.7969 -45.3125 C 41.8457 -34.8145 49.1699 -27.002 58.5449 -26.9043 Z" />
    </g>
</svg>