<svg viewBox="0 0 420 420" version="1.1" width="420" height="420" xmlns="http://www.w3.org/2000/svg">
  <g transform="matrix(4.2164539,0,0,4.2164695,-36.85283,358.64699)">
    <path d="m 58.5449,14.5508 c 27.2461,0 49.8051,-22.55861 49.8051,-49.8047 0,-27.1973 -22.6078,-49.8047 -49.8539,-49.8047 -27.1973,0 -49.75587,22.6074 -49.75587,49.8047 0,27.24609 22.60747,49.8047 49.80467,49.8047 z m 0,-33.1543 c -14.6972,0 -25.9765,5.2246 -30.957,11.08397 -6.543,-7.32427 -10.4981,-17.04097 -10.4981,-27.73437 0,-22.9981 18.3594,-41.5039 41.4063,-41.5039 23.0469,0 41.5039,18.5058 41.5529,41.5039 0.049,10.7422 -3.9552,20.459 -10.547,27.7832 -4.9317,-5.8594 -16.2598,-11.1328 -30.9571,-11.1328 z m 0,-8.3008 c 9.375,0.0977 16.7481,-7.9102 16.7481,-18.4082 0,-9.8633 -7.3731,-18.0664 -16.7481,-18.0664 -9.375,0 -16.7969,8.2031 -16.748,18.0664 0.0488,10.498 7.373,18.3105 16.748,18.4082 z" />
  </g>
</svg>
