<svg viewBox="0 0 420 420" version="1.1" width="420" height="420" xmlns="http://www.w3.org/2000/svg">
    <path d="m 58.5449,14.5508 c 27.2461,0 49.8051,-22.55861 49.8051,-49.8047 0,-27.1973 -22.6078,-49.8047 -49.8539,-49.8047 -27.1973,0 -49.75587,22.6074 -49.75587,49.8047 0,27.24609 22.60747,49.8047 49.80467,49.8047 z m 0,-8.3008 c -23.0469,0 -41.4551,-18.457 -41.4551,-41.5039 0,-22.9981 18.3594,-41.5039 41.4063,-41.5039 23.0469,0 41.5039,18.5058 41.5529,41.5039 C 100.098,-12.207 81.5918,6.25 58.5449,6.25 Z M 45.8496,-11.6699 h 25.3906 c 3.3692,0 4.9805,-1.6602 4.9805,-5.3223 v -19.5312 c 0,-3.2227 -1.2207,-4.8828 -3.8086,-5.2735 v -5.8105 c 0,-9.5215 -5.7617,-15.6738 -13.8672,-15.6738 -8.1054,0 -13.8672,6.1523 -13.8672,15.6738 v 5.8594 c -2.5879,0.3906 -3.8086,2.0507 -3.8086,5.2246 v 19.5312 c 0,3.6621 1.6114,5.3223 4.9805,5.3223 z m 3.9063,-36.4746 c 0,-6.1524 3.5156,-10.2051 8.789,-10.2051 5.2735,0 8.7891,4.0527 8.7891,10.2051 v 6.2988 H 49.7559 Z" transform="matrix(4.2164539,0,0,4.2164694,-36.852777,358.64699)"/>
</svg>
