<svg viewBox="0 0 420 420" width="420" height="420" version="1.1" xmlns="http://www.w3.org/2000/svg">
  <g transform="matrix(3.7041666,0,0,3.7041667,-32.375268,315.07123)">
    <rect width="60.671368" height="19.89225" x="28.632483" y="-38.31181"/>
    <path d="m 65.433391,-85.0586 c -31.014242,0 -56.693161,25.678567 -56.693161,56.692914 0,30.958808 25.734468,56.692913 56.74871,56.692913 30.958694,0 56.63712,-25.734105 56.63712,-56.692913 0,-31.014347 -25.734089,-56.692914 -56.692669,-56.692914 z m 0,9.448838 c 26.234293,0 47.188349,21.009686 47.188349,47.244076 0,26.17884 -20.898507,47.244075 -47.1328,47.244075 -26.234292,0 -47.2439,-21.065235 -47.29968,-47.244075 -0.0558,-26.23439 21.009839,-47.244076 47.244131,-47.244076 z"/>
    <path d="m 82.341561,-48.257935 c 0,0 19.892249,19.89225 19.892249,19.89225 0,0 -19.892249,19.8922478 -19.892249,19.8922478 0,0 0,-39.7844978 0,-39.7844978 z" />
  </g>
</svg>
