<svg viewBox="0 0 114 114" width="114" height="114" version="1.1" xmlns="http://www.w3.org/2000/svg">
    <g transform="translate(-8.74023,85.0586)">
        <rect width="74" height="20" x="28.740231" y="-38.058601"/>
        <rect width="20" height="74" x="55.740231" y="-65.058601"/>
        <path d="m 65.740477,-85.0586 c -31.182235,0 -57.000247,25.817659 -57.000247,57.000001 0,31.126501 25.873862,56.999999 57.056097,56.999999 31.126386,0 56.943903,-25.873498 56.943903,-56.999999 0,-31.182342 -25.873481,-57.000001 -56.999753,-57.000001 z m 0,9.500019 c 26.376395,0 47.443953,21.123489 47.443953,47.499982 0,26.3206415 -21.011708,47.49998 -47.388103,47.49998 -26.376393,0 -47.499803,-21.1793385 -47.555885,-47.49998 -0.0561,-26.376493 21.123642,-47.499982 47.500035,-47.499982 z"/>
    </g>
</svg>
