<svg viewBox="0 0 100 100" width="300px" height="300px" version="1.1" xmlns="http://www.w3.org/2000/svg">
    <g transform="matrix(1.1545503,0,0,1.1545503,-2.0400633,-2.8128146)">
        <path d="m 80.2,67.7 c -0.4,0.4 -1,0.4 -1.4,0 l -3.2,-3.2 v 10 c 0,0.5 -0.4,1 -1,1 -0.6,0 -1,-0.5 -1,-1 v -10 l -3.2,3.2 c -0.2,0.2 -0.5,0.3 -0.7,0.3 -0.3,0 -0.5,-0.1 -0.7,-0.3 -0.4,-0.4 -0.4,-1 0,-1.4 l 4.9,-4.9 c 0.1,-0.1 0.2,-0.2 0.3,-0.2 0.2,-0.1 0.5,-0.1 0.8,0 0.1,0 0.2,0.1 0.3,0.2 l 4.9,4.9 c 0.4,0.4 0.4,1 0,1.4 z"/>
        <path d="m 31,38.2 c -3.5,0 -6.4,-2.8 -6.4,-6.4 0,-3.5 2.8,-6.3 6.4,-6.3 3.5,0 6.3,2.8 6.3,6.3 0,3.6 -2.8,6.4 -6.3,6.4 z"/>
        <path d="M 75.6,54.6 V 21.2 c 0,-1.6 -1.3,-3 -3,-3 H 16.2 c -1.7,0 -3,1.4 -3,3 v 45.1 c 0,1.6 1.3,3 3,3 h 44.7 c 0.5,7.1 6.5,12.8 13.7,12.8 7.6,0 13.8,-6.2 13.8,-13.8 C 88.3,61.1 82.7,55.1 75.6,54.6 Z M 15.2,21.2 c 0,-0.5 0.4,-1 1,-1 h 56.4 c 0.6,0 1,0.5 1,1 V 50.5 L 59,37.7 c -0.4,-0.3 -1,-0.3 -1.3,0 L 40.1,54.1 32,46.1 C 31.7,45.8 31.1,45.7 30.7,46 L 15.2,57.3 Z m 59.4,58.9 c -6.5,0 -11.7,-5.3 -11.7,-11.8 0,-6.5 5.3,-11.8 11.7,-11.8 6.5,0 11.8,5.3 11.8,11.8 -0.1,6.5 -5.3,11.8 -11.8,11.8 z"/>
    </g>
</svg>
