<svg height="420" viewBox="0 0 19.6875 19.6875" width="420" version="1.1" xmlns="http://www.w3.org/2000/svg">
  <path d="m 7.1777114,14.856875 v 3.804137 c 0,0.265748 0.1706244,0.501148 0.4232798,0.58481 0.063164,0.0205 0.1279684,0.03035 0.1919526,0.03035 0.1919525,0 0.3773425,-0.09022 0.4954671,-0.250985 L 10.513912,15.99697 Z"/>
  <path d="M 19.429075,0.52541006 C 19.240404,0.39171575 18.99267,0.37367112 18.787593,0.4811187 L 0.33062137,10.118592 c -0.21820243,0.11401 -0.34699108,0.34695 -0.32894426,0.592192 0.01886712,0.246064 0.18210879,0.456038 0.41425648,0.535598 L 5.5469718,12.999992 16.474319,3.6577939 8.0185655,13.843989 16.617873,16.782803 c 0.06398,0.02133 0.13125,0.03281 0.198515,0.03281 0.111563,0 0.222304,-0.03035 0.319921,-0.0894 0.155859,-0.09514 0.261679,-0.255085 0.288749,-0.434712 L 19.68091,1.117607 C 19.71454,0.88794811 19.61775,0.65992959 19.429075,0.52541506 Z"/>
</svg>
