<svg viewBox="0 0 110 110" version="1.1" width="110" height="110" xmlns="http://www.w3.org/2000/svg">
  <g transform="matrix(1.0003568,0,0,1.0149704,-8.7433482,90.535089)">
    <path d="m 63.7207,12.5488 c 1.2695,0 2.4902,-0.1465 3.8086,-0.2441 l 2.7832,5.3711 c 0.5371,1.0742 1.6113,1.6601 2.9785,1.4648 1.2207,-0.2441 2.0508,-1.123 2.2461,-2.4414 l 0.8301,-5.9082 c 2.4414,-0.6348 4.834,-1.56248 7.1289,-2.58788 l 4.3945,3.95508 c 0.9278,0.8789 2.0996,1.0742 3.3203,0.3906 1.0743,-0.5859 1.5137,-1.7578 1.2696,-3.02732 L 91.2598,3.66211 c 2.0507,-1.41602 4.0527,-3.027344 5.8593,-4.83399 l 5.4199,2.29493 c 1.221,0.48828 2.393,0.24414 3.32,-0.878909 0.83,-0.878907 0.928,-2.148441 0.196,-3.222661 l -3.174,-5.07812 c 1.465,-2.05076 2.637,-4.24806 3.76,-6.59176 l 6.005,0.2929 c 1.27,0.0489 2.295,-0.6347 2.735,-1.8554 0.39,-1.2207 0.049,-2.3926 -0.977,-3.1739 l -4.687,-3.7109 c 0.635,-2.3438 1.123,-4.8828 1.367,-7.5195 l 5.615,-1.7578 c 1.27,-0.4395 2.002,-1.3672 2.002,-2.6856 0,-1.2695 -0.732,-2.1973 -2.002,-2.6367 l -5.615,-1.8067 c -0.244,-2.6367 -0.732,-5.0781 -1.367,-7.4707 l 4.687,-3.7597 c 0.977,-0.7324 1.367,-1.8555 0.977,-3.0762 -0.44,-1.2207 -1.465,-1.9043 -2.735,-1.8555 l -6.005,0.2442 c -1.123,-2.3438 -2.295,-4.541 -3.76,-6.5918 l 3.174,-5.0781 c 0.683,-1.0254 0.586,-2.295 -0.196,-3.1739 -0.927,-1.123 -2.099,-1.416 -3.32,-0.8789 l -5.4199,2.1973 c -1.8066,-1.709 -3.8086,-3.3692 -5.8593,-4.7852 l 1.2207,-5.8105 c 0.2441,-1.3184 -0.1953,-2.4902 -1.2696,-3.0762 -1.2207,-0.6348 -2.3925,-0.5371 -3.3203,0.4395 l -4.3945,3.8574 c -2.2949,-1.0254 -4.6875,-1.8555 -7.1289,-2.5391 l -0.8301,-5.9082 c -0.1953,-1.2695 -1.0742,-2.1972 -2.2949,-2.3926 -1.3184,-0.1953 -2.3926,0.3418 -2.9297,1.4161 l -2.7832,5.3711 c -1.3184,-0.0977 -2.5391,-0.1954 -3.8086,-0.1954 -1.3184,0 -2.4902,0.0977 -3.8086,0.1954 l -2.832,-5.3711 c -0.5371,-1.0743 -1.6113,-1.6114 -2.9297,-1.4161 -1.2207,0.1954 -2.0996,1.1231 -2.2461,2.3926 l -0.8789,5.8594 c -2.4414,0.7324 -4.7852,1.5625 -7.1289,2.5879 l -4.3945,-3.8574 c -0.9278,-0.9766 -2.0997,-1.0743 -3.3204,-0.4395 -1.0742,0.586 -1.5136,1.7578 -1.2695,3.0762 l 1.2207,5.8105 c -2.0019,1.416 -4.0527,3.0762 -5.8594,4.7852 l -5.4199,-2.1973 c -1.2207,-0.5371 -2.3437,-0.2441 -3.2715,0.8789 -0.83,0.8789 -0.9277,2.1485 -0.2441,3.125 l 3.1738,5.127 c -1.416,2.0508 -2.6367,4.248 -3.7597,6.5918 l -5.9571,-0.2442 c -1.2695,-0.0488 -2.3437,0.6348 -2.7832,1.8555 -0.3906,1.2207 -0.0488,2.3438 0.9766,3.0762 l 4.6875,3.7597 c -0.6348,2.3926 -1.1231,4.834 -1.2696,7.4707 l -5.7128,1.8067 c -1.26957,0.3906 -1.95317,1.3183 -1.95317,2.6367 0,1.3184 0.6836,2.2461 1.95317,2.6856 l 5.7128,1.8066 c 0.1465,2.5879 0.6348,5.1269 1.2696,7.4707 l -4.6875,3.7109 c -0.9766,0.7813 -1.3184,1.9532 -0.9766,3.1739 0.4395,1.2207 1.5137,1.9043 2.7832,1.8554 l 5.9571,-0.2929 c 1.123,2.3437 2.3437,4.541 3.7597,6.59176 l -3.1738,5.07812 c -0.6836,1.07422 -0.5859,2.343754 0.2441,3.222661 0.9278,1.123049 2.0508,1.367189 3.2715,0.878909 l 5.4199,-2.29493 c 1.8067,1.806646 3.8575,3.41797 5.8594,4.83399 l -1.2207,5.85937 c -0.2441,1.26952 0.1953,2.44142 1.2695,3.02732 1.2207,0.6836 2.3926,0.4883 3.3204,-0.3906 l 4.3945,-3.95508 c 2.3437,1.0254 4.6875,1.95308 7.1289,2.58788 l 0.8789,5.9082 c 0.1465,1.3184 1.0254,2.1973 2.2461,2.4414 1.3184,0.1953 2.3926,-0.3906 2.9297,-1.4648 l 2.832,-5.3711 c 1.2695,0.0976 2.4902,0.2441 3.8086,0.2441 z m 12.2559,-50.6836 c -2.2461,-6.1523 -6.7871,-9.5214 -12.3536,-9.5214 -0.8789,0 -1.8066,0.0976 -3.4179,0.4394 L 46.1914,-71.1426 c 5.2734,-2.5879 11.1816,-4.0039 17.5293,-4.0039 21.2891,0 37.9883,16.1621 39.5503,37.0117 z m -51.9043,3.125 c 0,-13.5742 6.4453,-25.5371 16.5039,-32.7636 l 14.1601,24.0722 c -2.6855,2.7344 -3.9062,5.7129 -3.9062,8.8867 0,3.0762 1.1719,5.9083 3.8574,8.7403 L 40.2832,-2.44141 C 30.3711,-9.7168 24.0723,-21.5332 24.0723,-35.0098 Z m 33.6914,0.1465 c 0,-3.3203 2.7832,-5.9082 5.957,-5.9082 3.2715,0 6.0059,2.5879 6.0059,5.9082 0,3.2715 -2.7344,5.9571 -6.0059,5.9571 -3.1738,0 -5.957,-2.6856 -5.957,-5.9571 z m 5.957,39.99025 c -6.4941,0 -12.5488,-1.51367 -17.8711,-4.150388 L 60.2051,-22.5098 c 1.5137,0.3907 2.539,0.4883 3.4179,0.4883 5.6153,0 10.1563,-3.4668 12.3536,-9.7656 H 103.223 C 101.66,-11.0352 85.0098,5.12695 63.7207,5.12695 Z"/>
  </g>
</svg>
